# xmcd
#
# Track frame offsets: 
#        182
#        18947
#        38555
#        60277
#        79640
#        95072
#        128120
#        145630
#        157602
#        175850
#        197590
#        219312
#        234072
#        251442
#        270020
#        294722
#        313657
#
# Disc length: 4356 seconds
#
# Revision: 4
# Processed by: cddbd v1.5.2PL0 Copyright (c) Steve Scherf et al.
# Submitted via: ExactAudioCopy v1.0b1
#
DISCID=ca110211
DTITLE=Rick James - Street Songs and Throwin' Down
DYEAR=1986
DGENRE=Funk
TTITLE0=Give It To Me Baby
TTITLE1=Ghetto Life
TTITLE2=Make Love To Me
TTITLE3=Mr. Policeman
TTITLE4=Super Freak
TTITLE5=Fire And Desire
TTITLE6=Call Me Up
TTITLE7=Below The Funk (Pass The J)
TTITLE8=Dance Wit' Me
TTITLE9=Money Talks
TTITLE10=Teardrops
TTITLE11=Throwdown
TTITLE12=Standing On The Top
TTITLE13=Hard To Get
TTITLE14=Happy
TTITLE15=69 Times
TTITLE16=My Love
EXTD=YEAR: 1986
EXTT0=
EXTT1=
EXTT2=
EXTT3=
EXTT4=
EXTT5=
EXTT6=
EXTT7=
EXTT8=
EXTT9=
EXTT10=
EXTT11=
EXTT12=
EXTT13=
EXTT14=
EXTT15=
EXTT16=
PLAYORDER=
